# xmcd
#
# Track frame offsets: 
#        150
#        15665
#        36995
#        55631
#        73346
#        91109
#        108176
#        128012
#        146675
#        162521
#        181148
#        200698
#        214608
#        235023
#        251002
#        267460
#        283136
#        298463
#        317178
#
# Disc length: 4393 seconds
#
# Revision: 0
# Processed by: cddbd v1.5.2PL0 Copyright (c) Steve Scherf et al.
# Submitted via: ExactAudioCopyFreeDBPlugin 1.0
#
DISCID=26112713
DTITLE=Various Artist - Hit Country - Ballads
DYEAR=2015
DGENRE=Country
TTITLE0=Lee Kernaghan - Flying With The King
TTITLE1=Sugarland - Stay
TTITLE2=McAlister Kemp - It Don't Buy You Love
TTITLE3=Sara Storer - Tell These Hands
TTITLE4=Brad Paisley - Perfect Storm
TTITLE5=Jasmine Rae - Just Don't Ask Me How I Am
TTITLE6=Carrie Underwood - Temporary Home
TTITLE7=The Wolfe Brothers - The Girl, The Bottle, The Memory
TTITLE8=Luke O'Shea - Lady Of The Land
TTITLE9=Kenny Chesney - Come Over
TTITLE10=The Wreckers - Tennessee
TTITLE11=Catherine Britt - Sweet Emmylou
TTITLE12=Alan Jackson - Remember When
TTITLE13=Willie Nelson - Always On My Mind
TTITLE14=Melinda Schneider - Wish You Were Here
TTITLE15=Jerrod Niemann - What Do You Want
TTITLE16=Courtney Conway - Burning Your Memory Down
TTITLE17=Jared Porter feat. Kaylee Bell - Pieces
TTITLE18=Patsy Cline - Crazy
EXTD=
EXTT0=
EXTT1=
EXTT2=
EXTT3=
EXTT4=
EXTT5=
EXTT6=
EXTT7=
EXTT8=
EXTT9=
EXTT10=
EXTT11=
EXTT12=
EXTT13=
EXTT14=
EXTT15=
EXTT16=
EXTT17=
EXTT18=
PLAYORDER=
